# xmcd CD database file
#
# Track frame offsets:
#	187
#	5327
#	28622
#	51939
#	71664
#	94612
#	117752
#	141469
#	162572
#
# Disc length: 2986 seconds
#
# Revision: 0
# Processed by: cddbd v1.5.1PL2 Copyright (c) Steve Scherf et al.
# Submitted via: CDex 1.51
#
DISCID=780ba809
DTITLE=HELLOWEEN - Keeper Of The Seven Keys Part 2
DYEAR=1988
DGENRE=Heavy Metal
TTITLE0=Invitation
TTITLE1=Eagle Fly Free
TTITLE2=You Always Walk Alone
TTITLE3=Rise And Fall
TTITLE4=Dr. Stein
TTITLE5=We Got The Right
TTITLE6=March Of Time
TTITLE7=I Want Out
TTITLE8=Keeper Of The Seven Keys
EXTD=YEAR: 1988
EXTT0=
EXTT1=
EXTT2=
EXTT3=
EXTT4=
EXTT5=
EXTT6=
EXTT7=
EXTT8=
PLAYORDER=
